# xmcd
# 
# Track frame offsets:
#     150
#     19742
#     42422
#     61912
# 
# Disc length: 1127
# 
# Revision: 1
# Processed by: cddbd v1.5.2PL0 Copyright (c) Steve Scherf et al.
# Submitted via: FoxEncoder v2.1.0
# 
DISCID=2c046504
DTITLE=???? - あきれかえるほど
DYEAR=1996
DGENRE=J-pop
TTITLE0=????????
TTITLE1=????????
TTITLE2=????????(????)
TTITLE3=????????(????)
EXTD=YEAR: 1996
EXTT0=
EXTT1=
EXTT2=
EXTT3=
PLAYORDER=
